<svg enable-background="new 0 0 5669.29 2834.65" height="2834.65" viewBox="0 0 5669.29 2834.65" width="5669.29" xmlns="http://www.w3.org/2000/svg"><g stroke-miterlimit="10"><g fill="none" stroke-width="92"><path d="m1045.57 922.88c164.83-11.22 329.66-22.44 494.48-33.65 33.22-2.26 69.86-3.53 95.99 17.11 28.44 22.46 34.22 62.64 37.05 98.77 12.28 156.6 9.31 314.4-8.86 470.43-3.62 31.11-8.68 64.08-29.12 87.81-25.83 29.98-68.77 37.11-108.07 41.78-162.84 19.34-326.8 29.26-490.79 29.69" stroke="#0f87ff"/><path d="m1835.57 922.88c164.83-11.22 329.66-22.44 494.48-33.65 33.22-2.26 69.86-3.53 95.99 17.11 28.44 22.46 34.22 62.64 37.05 98.77 12.28 156.6 9.31 314.4-8.86 470.43-3.62 31.11-8.68 64.08-29.12 87.81-25.83 29.98-68.77 37.11-108.07 41.78-162.84 19.34-326.8 29.26-490.79 29.69" stroke="#0f87ff"/><g stroke="#000"><path d="m2722.17 866.15c-.98 160.1-1.95 320.19-2.93 480.29-.39 64.6.61 133.92 37.83 186.72 41.94 59.52 120.11 82.53 192.9 84.06 72.79 1.54 139.09-6.26 217.85-14.71-.65 0-4.31 0-4.96 0"/><path d="m3024.39 934.14c9.55 51.21 19.1 102.43 28.65 153.64"/><path d="m3165.62 923.05c9.8 48.6 19.61 97.21 29.41 145.81"/></g><path d="m3425.25 1215.92c196.87-29.14 396.59-58.33 594.15-34.3 41.7 5.07 87.79 15.4 111.09 50.35 21.3 31.96 15.6 77.04-7.32 107.86s-59.94 48.7-97.62 56.15-76.5 5.54-114.85 3.61" stroke="#5dd10a"/><path d="m3612.06 849.88c5.05 265.69 37.84 530.85 98.7 789.53" stroke="#5dd10a"/></g><g stroke-dasharray="0 0 0 0 0 0"><path d="m3886.21 953.76c-.01-.05-.02-.09-.02-.14-10.45-115.6-5-235.38 55.33-337.11 12.63-21.29 28.15-42.13 51.51-55.8 23.36-13.68 56.05-18.9 82.8-7.77 26.71 11.11 42.14 36.24 44.46 60.39s-6.37 47.61-16.68 69.77c-47.78 102.64-131.58 189.58-217.27 272.76z" fill="#f01" stroke="#f00"/><ellipse cx="3860.67" cy="1041.08" fill="#ff0400" rx="45.67" ry="55.06" stroke="#f00" transform="matrix(.1279 -.9918 .9918 .1279 2334.4636 4736.9351)"/><path d="m827.08 1793.72c644.97 499.52 1528.61 675.25 2315.63 460.51s1458.94-814.92 1760.82-1572.8" fill="none" stroke="#ffae00" stroke-width="87"/><path d="m4632.88 800.45c66.86-46.54 133.72-93.09 200.58-139.63 21.94-15.28 51.7-18.6 76.48-8.54 24.77 10.06 43.79 33.19 48.88 59.44 16.1 83.11 32.2 166.23 48.31 249.34" fill="none" stroke="#ffae00" stroke-width="87"/></g></g></svg>