<svg width="23" height="22" viewBox="0 0 23 22" fill="none" xmlns="http://www.w3.org/2000/svg">
<path id="Vector" d="M19.8456 19.5556V2.44444H2.77828V19.5556H19.8456ZM19.8456 0C20.4923 0 21.1124 0.257539 21.5697 0.715961C22.0269 1.17438 22.2838 1.79614 22.2838 2.44444V19.5556C22.2838 20.2039 22.0269 20.8256 21.5697 21.284C21.1124 21.7425 20.4923 22 19.8456 22H2.77828C2.13163 22 1.51147 21.7425 1.05422 21.284C0.596968 20.8256 0.340088 20.2039 0.340088 19.5556V2.44444C0.340088 1.08778 1.43727 0 2.77828 0H19.8456ZM10.0929 4.88889H12.5311V9.77778H17.4074V12.2222H12.5311V17.1111H10.0929V12.2222H5.21647V9.77778H10.0929V4.88889Z" fill="black"/>
</svg>
