<svg width="23" height="22" viewBox="0 0 23 22" fill="none" xmlns="http://www.w3.org/2000/svg">
<path id="Vector" d="M11.1227 0C12.5777 0 13.9731 0.579462 15.0019 1.61091C16.0307 2.64236 16.6087 4.04131 16.6087 5.5C16.6087 6.95869 16.0307 8.35764 15.0019 9.38909C13.9731 10.4205 12.5777 11 11.1227 11C9.66779 11 8.27242 10.4205 7.2436 9.38909C6.21479 8.35764 5.63681 6.95869 5.63681 5.5C5.63681 4.04131 6.21479 2.64236 7.2436 1.61091C8.27242 0.579462 9.66779 0 11.1227 0ZM11.1227 13.75C17.1847 13.75 22.0946 16.2113 22.0946 19.25V22H0.150879V19.25C0.150879 16.2113 5.06079 13.75 11.1227 13.75Z" fill="black"/>
</svg>
