<svg width="56" height="56" viewBox="0 0 56 56" fill="none" xmlns="http://www.w3.org/2000/svg">
<g id="Group 7">
<circle id="Ellipse 1" cx="28" cy="28" r="28" fill="#0E99FF"/>
<g id="Group 6">
<path id="Vector" d="M27.9999 9.69861C23.1736 9.69861 19.2499 13.7386 19.2499 18.7079C19.2499 23.5824 22.9525 27.5275 27.7788 27.6982C27.9262 27.6793 28.0736 27.6793 28.1841 27.6982C28.2209 27.6982 28.2394 27.6982 28.2762 27.6982C28.2946 27.6982 28.2946 27.6982 28.313 27.6982C33.0288 27.5275 36.7315 23.5824 36.7499 18.7079C36.7499 13.7386 32.8262 9.69861 27.9999 9.69861Z" fill="white"/>
<path id="Vector_2" d="M37.6817 32.5617C32.3646 29.1739 23.6934 29.1739 18.3381 32.5617C15.9178 34.1098 14.5837 36.2043 14.5837 38.4446C14.5837 40.6849 15.9178 42.7612 18.3191 44.2911C20.9872 46.0032 24.4937 46.8592 28.0004 46.8592C31.507 46.8592 35.0136 46.0032 37.6817 44.2911C40.083 42.743 41.417 40.6666 41.417 38.4082C41.398 36.1679 40.083 34.0916 37.6817 32.5617Z" fill="white"/>
</g>
</g>
</svg>
